<svg width="79" height="79" viewBox="0 0 79 79" fill="none" xmlns="http://www.w3.org/2000/svg">
<circle cx="39.5" cy="39.5" r="39.5" fill="#253DA1"/>
<path d="M39 44H33C32.2044 44 31.4413 44.3161 30.8787 44.8787C30.3161 45.4413 30 46.2044 30 47V49H32V47C32 46.7348 32.1054 46.4804 32.2929 46.2929C32.4804 46.1054 32.7348 46 33 46H39C39.2652 46 39.5196 46.1054 39.7071 46.2929C39.8946 46.4804 40 46.7348 40 47V49H42V47C42 46.2044 41.6839 45.4413 41.1213 44.8787C40.5587 44.3161 39.7956 44 39 44ZM36 43C36.7911 43 37.5645 42.7654 38.2223 42.3259C38.8801 41.8864 39.3928 41.2616 39.6955 40.5307C39.9983 39.7998 40.0775 38.9956 39.9231 38.2196C39.7688 37.4437 39.3878 36.731 38.8284 36.1716C38.269 35.6122 37.5563 35.2312 36.7804 35.0769C36.0044 34.9225 35.2002 35.0017 34.4693 35.3045C33.7384 35.6072 33.1136 36.1199 32.6741 36.7777C32.2346 37.4355 32 38.2089 32 39C32 40.0609 32.4214 41.0783 33.1716 41.8284C33.9217 42.5786 34.9391 43 36 43ZM36 37C36.3956 37 36.7822 37.1173 37.1111 37.3371C37.44 37.5568 37.6964 37.8692 37.8478 38.2346C37.9991 38.6001 38.0387 39.0022 37.9616 39.3902C37.8844 39.7781 37.6939 40.1345 37.4142 40.4142C37.1345 40.6939 36.7781 40.8844 36.3902 40.9616C36.0022 41.0387 35.6001 40.9991 35.2346 40.8478C34.8692 40.6964 34.5568 40.44 34.3371 40.1111C34.1173 39.7822 34 39.3956 34 39C34 38.4696 34.2107 37.9609 34.5858 37.5858C34.9609 37.2107 35.4696 37 36 37Z" fill="white"/>
<path d="M52 43V52H28V32H40V30H28C27.4696 30 26.9609 30.2107 26.5858 30.5858C26.2107 30.9609 26 31.4696 26 32V52C26 52.5304 26.2107 53.0391 26.5858 53.4142C26.9609 53.7893 27.4696 54 28 54H52C52.5304 54 53.0391 53.7893 53.4142 53.4142C53.7893 53.0391 54 52.5304 54 52V43H52Z" fill="white"/>
<path d="M44 43H50V45H44V43ZM46 47H50V49H46V47ZM56 34V32H53.899C53.77 31.374 53.5215 30.7788 53.167 30.247L54.657 28.757L53.243 27.343L51.753 28.833C51.2212 28.4785 50.626 28.23 50 28.101V26H48V28.101C47.374 28.23 46.7788 28.4785 46.247 28.833L44.757 27.343L43.343 28.757L44.833 30.247C44.4785 30.7788 44.23 31.374 44.101 32H42V34H44.101C44.23 34.626 44.4785 35.2212 44.833 35.753L43.343 37.243L44.757 38.657L46.247 37.167C46.7788 37.5215 47.374 37.77 48 37.899V40H50V37.899C50.626 37.77 51.2212 37.5215 51.753 37.167L53.243 38.657L54.657 37.243L53.167 35.753C53.5215 35.2212 53.77 34.626 53.899 34H56ZM49 36C48.4067 36 47.8266 35.8241 47.3333 35.4944C46.8399 35.1648 46.4554 34.6962 46.2284 34.1481C46.0013 33.5999 45.9419 32.9967 46.0576 32.4147C46.1734 31.8328 46.4591 31.2982 46.8787 30.8787C47.2982 30.4591 47.8328 30.1734 48.4147 30.0576C48.9967 29.9419 49.5999 30.0013 50.1481 30.2284C50.6962 30.4554 51.1648 30.8399 51.4944 31.3333C51.8241 31.8266 52 32.4067 52 33C51.9992 33.7954 51.6829 34.558 51.1204 35.1204C50.558 35.6829 49.7954 35.9992 49 36Z" fill="white"/>
</svg>
