<svg width="79" height="79" viewBox="0 0 79 79" fill="none" xmlns="http://www.w3.org/2000/svg">
<circle cx="39.5" cy="39.5" r="39.5" fill="#253DA1"/>
<g clip-path="url(#clip0_463_299)">
<path d="M39.1838 40.1092C38.4538 40.7892 32.6031 46.4655 32.6031 46.4655L34.165 48.0055C34.165 48.0055 39.3631 43.208 40.1437 42.4823C40.3369 42.3036 40.6637 41.963 41.2681 41.963H58.9963V39.508H40.6519C40.1156 39.5086 39.6075 39.7192 39.1838 40.1092ZM49.6869 26.7648C51.7656 26.7648 52.9 25.3255 52.9 23.5517C52.8999 22.9164 52.7114 22.2954 52.3583 21.7672C52.0053 21.239 51.5036 20.8273 50.9166 20.5843C50.3296 20.3412 49.6837 20.2776 49.0606 20.4016C48.4375 20.5256 47.8652 20.8315 47.4159 21.2808C46.9667 21.73 46.6607 22.3024 46.5368 22.9255C46.4128 23.5486 46.4763 24.1944 46.7194 24.7814C46.9625 25.3684 47.3741 25.8701 47.9023 26.2232C48.4305 26.5762 49.0516 26.7647 49.6869 26.7648ZM44.9231 32.2861H46.0006L44.4219 37.958H54.9531L53.3731 32.2861H54.4506L56.0894 37.958H58.8731L56.6356 30.4317C56.34 29.3923 55.0256 27.5511 52.75 27.5511H46.6238C44.3494 27.5511 43.0363 29.3923 42.7381 30.4317L40.5037 37.958H43.2875L44.9231 32.2861ZM35.8144 37.6605L32.9862 32.3873C32.9862 32.3873 32.82 32.1361 32.5119 32.2855C32.235 32.4192 32.36 32.7311 32.36 32.7311L33.2981 34.5217L33.8819 35.6373L33.2087 35.3342C32.0163 34.7967 31.3588 34.5673 31.095 34.4492C31.0481 34.4273 30.8169 34.3005 30.7069 34.0586C30.3944 33.3598 29.06 29.9823 28.7606 29.2355C28.5075 28.6036 27.8831 27.7061 26.6 27.3886C25.1394 27.0273 23.6669 27.9486 23.3194 29.4142L21.3262 37.8148C21.1487 38.4923 20.8438 40.3248 20.8438 41.0973L20.8569 57.5061C20.8669 58.8905 21.8662 60.0067 23.2494 60.0005C24.6306 59.9961 25.5763 58.8705 25.5719 57.488L25.5687 43.5867L27.6944 34.6148C27.9425 35.2217 28.25 35.9611 28.3506 36.1386C28.59 36.5573 28.8262 36.8455 29.3088 37.0723C29.3088 37.0723 32.0906 38.2236 33.1675 38.7148C33.475 38.8324 33.8122 38.8483 34.1294 38.7604C34.4467 38.6724 34.7275 38.4852 34.9306 38.2261L35.0794 37.918L35.1306 38.0161C35.1306 38.0161 35.4475 38.5742 35.9156 38.5998C36.05 38.1742 35.815 37.6605 35.815 37.6605H35.8144ZM31.5144 23.5242C31.5144 23.9462 31.4313 24.3641 31.2698 24.7539C31.1083 25.1438 30.8716 25.4981 30.5732 25.7965C30.2748 26.0949 29.9205 26.3316 29.5307 26.493C29.1408 26.6545 28.7229 26.7377 28.3009 26.7377C27.8789 26.7377 27.4611 26.6545 27.0712 26.493C26.6813 26.3316 26.3271 26.0949 26.0287 25.7965C25.7303 25.4981 25.4936 25.1438 25.3321 24.7539C25.1706 24.3641 25.0875 23.9462 25.0875 23.5242C25.0993 22.6797 25.443 21.8738 26.0444 21.2808C26.6457 20.6878 27.4564 20.3553 28.3009 20.3553C29.1455 20.3553 29.9561 20.6878 30.5575 21.2808C31.1589 21.8738 31.5026 22.6797 31.5144 23.5242Z" fill="white"/>
<path d="M32.9617 44.4916L39.2229 38.6641L38.4092 37.791L32.1479 43.6191L32.9617 44.4916Z" fill="white"/>
</g>
<defs>
<clipPath id="clip0_463_299">
<rect width="40" height="40" fill="white" transform="translate(20 20)"/>
</clipPath>
</defs>
</svg>
