<svg width="79" height="79" viewBox="0 0 79 79" fill="none" xmlns="http://www.w3.org/2000/svg">
<circle cx="39.5" cy="39.5" r="39.5" fill="#253DA1"/>
<path d="M55.0366 43.45H60.3033V59.25H39.2366V43.45H44.5033V38.1833H55.0366V43.45ZM47.1366 43.45H52.4033V40.8167H47.1366V43.45ZM57.6699 51.35H55.0366V53.9833H52.4033V51.35H47.1366V53.9833H44.5033V51.35H41.8699V56.6167H57.6699V51.35ZM41.8699 46.0833V48.7167H57.6699V46.0833H41.8699ZM36.6033 35.55C36.6033 36.8255 36.3221 38.0188 35.7598 39.1297C35.1974 40.2406 34.3951 41.1733 33.3527 41.9276C33.9699 42.2431 34.5528 42.6065 35.1014 43.018C35.65 43.4294 36.1507 43.8889 36.6033 44.3964V51.35C36.6033 50.2665 36.3975 49.2447 35.9861 48.2846C35.5746 47.3246 35.0123 46.4879 34.2991 45.7747C33.5859 45.0615 32.7424 44.4924 31.7686 44.0672C30.7948 43.642 29.773 43.4363 28.7033 43.45C27.606 43.45 26.5842 43.6557 25.6379 44.0672C24.6915 44.4786 23.8549 45.041 23.128 45.7542C22.4011 46.4674 21.8319 47.3109 21.4204 48.2846C21.009 49.2584 20.8033 50.2802 20.8033 51.35H18.1699C18.1699 50.3488 18.3071 49.3819 18.5814 48.4492C18.8557 47.5166 19.2466 46.6319 19.754 45.7953C20.2615 44.9587 20.8855 44.2181 21.6262 43.5734C22.3668 42.9288 23.176 42.3734 24.0538 41.907C23.0251 41.1664 22.2296 40.2406 21.6673 39.1297C21.105 38.0188 20.817 36.8255 20.8033 35.55C20.8033 34.4665 21.009 33.4447 21.4204 32.4846C21.8319 31.5246 22.3942 30.6879 23.1074 29.9747C23.8206 29.2615 24.6572 28.6924 25.6173 28.2672C26.5774 27.842 27.606 27.6363 28.7033 27.65C29.6908 27.65 30.6303 27.8214 31.5217 28.1643C32.4132 28.5072 33.2293 29.0147 33.9699 29.6867C34.4088 29.289 34.8957 28.9392 35.4306 28.6375C34.9643 28.1575 34.6077 27.602 34.3608 26.9711C34.1139 26.3402 33.9836 25.6887 33.9699 25.0167C33.9699 24.2898 34.1071 23.6109 34.3814 22.9799C34.6557 22.349 35.0329 21.7867 35.5129 21.293C35.9929 20.7992 36.5484 20.422 37.1793 20.1615C37.8102 19.9009 38.496 19.7637 39.2366 19.75C39.9635 19.75 40.6424 19.8872 41.2733 20.1615C41.9042 20.4358 42.4665 20.8129 42.9603 21.293C43.454 21.773 43.8312 22.3285 44.0918 22.9594C44.3524 23.5903 44.4895 24.276 44.5033 25.0167C44.5033 25.6887 44.3798 26.3402 44.1329 26.9711C43.8861 27.602 43.5226 28.1575 43.0426 28.6375C44.1809 29.2684 45.1067 30.1188 45.8199 31.1885C46.5331 30.1188 47.4589 29.2684 48.5973 28.6375C48.1309 28.1575 47.7744 27.602 47.5275 26.9711C47.2806 26.3402 47.1503 25.6887 47.1366 25.0167C47.1366 24.2898 47.2737 23.6109 47.548 22.9799C47.8224 22.349 48.1995 21.7867 48.6796 21.293C49.1596 20.7992 49.7151 20.422 50.346 20.1615C50.9769 19.9009 51.6626 19.7637 52.4033 19.75C53.1302 19.75 53.8091 19.8872 54.44 20.1615C55.0709 20.4358 55.6332 20.8129 56.127 21.293C56.6207 21.773 56.9979 22.3285 57.2585 22.9594C57.5191 23.5903 57.6562 24.276 57.6699 25.0167C57.6699 25.6887 57.5465 26.3402 57.2996 26.9711C57.0527 27.602 56.6893 28.1575 56.2092 28.6375C56.8401 28.9804 57.4093 29.3987 57.9168 29.8924C58.4243 30.3862 58.8494 30.928 59.1923 31.5177C59.5352 32.1075 59.8095 32.7521 60.0152 33.4516C60.221 34.151 60.317 34.8505 60.3033 35.55H57.6699C57.6699 34.8231 57.5328 34.1442 57.2585 33.5133C56.9842 32.8824 56.607 32.3201 56.127 31.8263C55.6469 31.3326 55.0914 30.9554 54.4605 30.6948C53.8296 30.4342 53.1439 30.297 52.4033 30.2833C51.6763 30.2833 50.9974 30.4205 50.3665 30.6948C49.7356 30.9691 49.1733 31.3463 48.6796 31.8263C48.1858 32.3063 47.8086 32.8618 47.548 33.4927C47.2875 34.1236 47.1503 34.8094 47.1366 35.55H44.5033C44.5033 34.8231 44.3661 34.1442 44.0918 33.5133C43.8175 32.8824 43.4403 32.3201 42.9603 31.8263C42.4803 31.3326 41.9248 30.9554 41.2939 30.6948C40.663 30.4342 39.9772 30.297 39.2366 30.2833C38.5645 30.2833 37.9131 30.4068 37.2822 30.6536C36.6513 30.9005 36.0958 31.264 35.6158 31.744C35.9449 32.3201 36.1918 32.9304 36.3564 33.575C36.521 34.2196 36.6033 34.878 36.6033 35.55ZM52.4033 22.3833C52.0329 22.3833 51.6901 22.4519 51.3746 22.5891C51.0592 22.7262 50.7849 22.9114 50.5517 23.1445C50.3185 23.3777 50.1265 23.6589 49.9757 23.988C49.8248 24.3172 49.7562 24.6601 49.7699 25.0167C49.7699 25.387 49.8385 25.7299 49.9757 26.0453C50.1128 26.3608 50.298 26.6351 50.5311 26.8682C50.7643 27.1014 51.0454 27.2934 51.3746 27.4443C51.7038 27.5951 52.0467 27.6637 52.4033 27.65C52.7736 27.65 53.1165 27.5814 53.4319 27.4443C53.7474 27.3071 54.0217 27.122 54.2548 26.8888C54.488 26.6556 54.68 26.3745 54.8309 26.0453C54.9817 25.7161 55.0503 25.3733 55.0366 25.0167C55.0366 24.6464 54.968 24.3035 54.8309 23.988C54.6937 23.6726 54.5086 23.3983 54.2754 23.1651C54.0422 22.9319 53.7611 22.7399 53.4319 22.5891C53.1027 22.4382 52.7599 22.3696 52.4033 22.3833ZM39.2366 22.3833C38.8663 22.3833 38.5234 22.4519 38.2079 22.5891C37.8925 22.7262 37.6182 22.9114 37.385 23.1445C37.1519 23.3777 36.9599 23.6589 36.809 23.988C36.6581 24.3172 36.5895 24.6601 36.6033 25.0167C36.6033 25.387 36.6718 25.7299 36.809 26.0453C36.9461 26.3608 37.1313 26.6351 37.3645 26.8682C37.5976 27.1014 37.8788 27.2934 38.2079 27.4443C38.5371 27.5951 38.88 27.6637 39.2366 27.65C39.6069 27.65 39.9498 27.5814 40.2652 27.4443C40.5807 27.3071 40.855 27.122 41.0882 26.8888C41.3213 26.6556 41.5133 26.3745 41.6642 26.0453C41.8151 25.7161 41.8836 25.3733 41.8699 25.0167C41.8699 24.6464 41.8013 24.3035 41.6642 23.988C41.527 23.6726 41.3419 23.3983 41.1087 23.1651C40.8756 22.9319 40.5944 22.7399 40.2652 22.5891C39.9361 22.4382 39.5932 22.3696 39.2366 22.3833ZM28.7033 40.8167C29.4302 40.8167 30.1091 40.6795 30.74 40.4052C31.3709 40.1309 31.9332 39.7537 32.427 39.2737C32.9207 38.7937 33.2979 38.2382 33.5585 37.6073C33.8191 36.9764 33.9562 36.2906 33.9699 35.55C33.9699 34.8231 33.8328 34.1442 33.5585 33.5133C33.2842 32.8824 32.907 32.3201 32.427 31.8263C31.9469 31.3326 31.3914 30.9554 30.7605 30.6948C30.1296 30.4342 29.4439 30.297 28.7033 30.2833C27.9763 30.2833 27.2974 30.4205 26.6665 30.6948C26.0356 30.9691 25.4733 31.3463 24.9796 31.8263C24.4858 32.3063 24.1086 32.8618 23.848 33.4927C23.5875 34.1236 23.4503 34.8094 23.4366 35.55C23.4366 36.2769 23.5737 36.9558 23.848 37.5867C24.1224 38.2176 24.4995 38.7799 24.9796 39.2737C25.4596 39.7674 26.0151 40.1446 26.646 40.4052C27.2769 40.6658 27.9626 40.803 28.7033 40.8167Z" fill="white"/>
</svg>
