<svg width="24" height="27" viewBox="0 0 24 27" fill="none" xmlns="http://www.w3.org/2000/svg">
<path d="M7.49796 3.00286C7.10024 3.00286 6.71882 3.16085 6.43759 3.44208C6.15636 3.72331 5.99837 4.10473 5.99837 4.50245C5.99837 4.90017 6.15636 5.28159 6.43759 5.56282C6.71882 5.84405 7.10024 6.00204 7.49796 6.00204C7.89568 6.00204 8.2771 5.84405 8.55833 5.56282C8.83956 5.28159 8.99755 4.90017 8.99755 4.50245C8.99755 4.10473 8.83956 3.72331 8.55833 3.44208C8.2771 3.16085 7.89568 3.00286 7.49796 3.00286ZM3.25411 3.00286C3.56393 2.1248 4.13848 1.36445 4.89857 0.826635C5.65865 0.288815 6.56684 0 7.49796 0C8.42908 0 9.33727 0.288815 10.0974 0.826635C10.8574 1.36445 11.432 2.1248 11.7418 3.00286H22.4939C22.8916 3.00286 23.273 3.16085 23.5542 3.44208C23.8355 3.72331 23.9935 4.10473 23.9935 4.50245C23.9935 4.90017 23.8355 5.28159 23.5542 5.56282C23.273 5.84405 22.8916 6.00204 22.4939 6.00204H11.7418C11.432 6.8801 10.8574 7.64045 10.0974 8.17826C9.33727 8.71608 8.42908 9.0049 7.49796 9.0049C6.56684 9.0049 5.65865 8.71608 4.89857 8.17826C4.13848 7.64045 3.56393 6.8801 3.25411 6.00204H1.49959C1.10188 6.00204 0.720448 5.84405 0.439221 5.56282C0.157993 5.28159 0 4.90017 0 4.50245C0 4.10473 0.157993 3.72331 0.439221 3.44208C0.720448 3.16085 1.10188 3.00286 1.49959 3.00286H3.25411ZM16.4955 12.0004C16.0978 12.0004 15.7164 12.1584 15.4351 12.4396C15.1539 12.7209 14.9959 13.1023 14.9959 13.5C14.9959 13.8977 15.1539 14.2791 15.4351 14.5604C15.7164 14.8416 16.0978 14.9996 16.4955 14.9996C16.8932 14.9996 17.2747 14.8416 17.5559 14.5604C17.8371 14.2791 17.9951 13.8977 17.9951 13.5C17.9951 13.1023 17.8371 12.7209 17.5559 12.4396C17.2747 12.1584 16.8932 12.0004 16.4955 12.0004ZM12.2517 12.0004C12.5615 11.1223 13.136 10.362 13.8961 9.82418C14.6562 9.28636 15.5644 8.99755 16.4955 8.99755C17.4266 8.99755 18.3348 9.28636 19.0949 9.82418C19.855 10.362 20.4295 11.1223 20.7394 12.0004H22.4939C22.8916 12.0004 23.273 12.1584 23.5542 12.4396C23.8355 12.7209 23.9935 13.1023 23.9935 13.5C23.9935 13.8977 23.8355 14.2791 23.5542 14.5604C23.273 14.8416 22.8916 14.9996 22.4939 14.9996H20.7394C20.4295 15.8777 19.855 16.638 19.0949 17.1758C18.3348 17.7136 17.4266 18.0024 16.4955 18.0024C15.5644 18.0024 14.6562 17.7136 13.8961 17.1758C13.136 16.638 12.5615 15.8777 12.2517 14.9996H1.49959C1.10188 14.9996 0.720448 14.8416 0.439221 14.5604C0.157993 14.2791 0 13.8977 0 13.5C0 13.1023 0.157993 12.7209 0.439221 12.4396C0.720448 12.1584 1.10188 12.0004 1.49959 12.0004H12.2517ZM7.49796 20.998C7.10024 20.998 6.71882 21.1559 6.43759 21.4372C6.15636 21.7184 5.99837 22.0998 5.99837 22.4975C5.99837 22.8953 6.15636 23.2767 6.43759 23.5579C6.71882 23.8391 7.10024 23.9971 7.49796 23.9971C7.89568 23.9971 8.2771 23.8391 8.55833 23.5579C8.83956 23.2767 8.99755 22.8953 8.99755 22.4975C8.99755 22.0998 8.83956 21.7184 8.55833 21.4372C8.2771 21.1559 7.89568 20.998 7.49796 20.998ZM3.25411 20.998C3.56393 20.1199 4.13848 19.3596 4.89857 18.8217C5.65865 18.2839 6.56684 17.9951 7.49796 17.9951C8.42908 17.9951 9.33727 18.2839 10.0974 18.8217C10.8574 19.3596 11.432 20.1199 11.7418 20.998H22.4939C22.8916 20.998 23.273 21.1559 23.5542 21.4372C23.8355 21.7184 23.9935 22.0998 23.9935 22.4975C23.9935 22.8953 23.8355 23.2767 23.5542 23.5579C23.273 23.8391 22.8916 23.9971 22.4939 23.9971H11.7418C11.432 24.8752 10.8574 25.6355 10.0974 26.1734C9.33727 26.7112 8.42908 27 7.49796 27C6.56684 27 5.65865 26.7112 4.89857 26.1734C4.13848 25.6355 3.56393 24.8752 3.25411 23.9971H1.49959C1.10188 23.9971 0.720448 23.8391 0.439221 23.5579C0.157993 23.2767 0 22.8953 0 22.4975C0 22.0998 0.157993 21.7184 0.439221 21.4372C0.720448 21.1559 1.10188 20.998 1.49959 20.998H3.25411Z" fill="#676161"/>
</svg>
