<svg width="849" height="681" viewBox="0 0 849 681" fill="none" xmlns="http://www.w3.org/2000/svg">
<rect width="854" height="681" transform="translate(-5)" fill="url(#paint0_linear_617_12)"/>
<path d="M245.936 275.936C246.192 275.936 246.448 275.989 246.704 276.096C246.96 276.181 247.205 276.341 247.44 276.576L251.728 281.088C249.851 283.541 247.493 285.397 244.656 286.656C241.84 287.893 238.501 288.512 234.64 288.512C231.099 288.512 227.92 287.915 225.104 286.72C222.309 285.504 219.931 283.84 217.968 281.728C216.027 279.595 214.533 277.077 213.488 274.176C212.443 271.253 211.92 268.085 211.92 264.672C211.92 261.195 212.485 258.005 213.616 255.104C214.747 252.181 216.336 249.664 218.384 247.552C220.432 245.44 222.885 243.797 225.744 242.624C228.603 241.451 231.749 240.864 235.184 240.864C236.933 240.864 238.576 241.024 240.112 241.344C241.669 241.643 243.12 242.069 244.464 242.624C245.808 243.157 247.045 243.808 248.176 244.576C249.307 245.344 250.309 246.176 251.184 247.072L247.536 251.968C247.301 252.267 247.024 252.544 246.704 252.8C246.384 253.035 245.936 253.152 245.36 253.152C244.976 253.152 244.613 253.067 244.272 252.896C243.931 252.725 243.568 252.523 243.184 252.288C242.8 252.032 242.373 251.765 241.904 251.488C241.456 251.189 240.912 250.923 240.272 250.688C239.653 250.432 238.917 250.219 238.064 250.048C237.232 249.877 236.251 249.792 235.12 249.792C233.328 249.792 231.685 250.123 230.192 250.784C228.72 251.445 227.44 252.416 226.352 253.696C225.285 254.955 224.453 256.512 223.856 258.368C223.28 260.203 222.992 262.304 222.992 264.672C222.992 267.061 223.312 269.184 223.952 271.04C224.613 272.896 225.499 274.464 226.608 275.744C227.739 277.003 229.051 277.963 230.544 278.624C232.037 279.285 233.637 279.616 235.344 279.616C236.325 279.616 237.221 279.573 238.032 279.488C238.843 279.381 239.6 279.221 240.304 279.008C241.008 278.773 241.669 278.475 242.288 278.112C242.907 277.728 243.536 277.248 244.176 276.672C244.432 276.459 244.709 276.288 245.008 276.16C245.307 276.011 245.616 275.936 245.936 275.936ZM264.578 259.936C265.602 258.144 266.775 256.736 268.097 255.712C269.442 254.688 270.978 254.176 272.706 254.176C274.199 254.176 275.415 254.528 276.354 255.232L275.714 262.528C275.607 262.997 275.426 263.317 275.17 263.488C274.935 263.659 274.604 263.744 274.178 263.744C274.007 263.744 273.783 263.733 273.506 263.712C273.228 263.691 272.94 263.669 272.642 263.648C272.343 263.605 272.034 263.573 271.714 263.552C271.415 263.509 271.138 263.488 270.882 263.488C269.431 263.488 268.268 263.872 267.394 264.64C266.54 265.408 265.815 266.475 265.218 267.84V288H255.298V254.816H261.186C261.676 254.816 262.082 254.859 262.402 254.944C262.743 255.029 263.02 255.168 263.234 255.36C263.468 255.531 263.639 255.765 263.746 256.064C263.874 256.363 263.98 256.725 264.066 257.152L264.578 259.936ZM299.813 267.424C299.813 266.635 299.706 265.867 299.493 265.12C299.301 264.373 298.97 263.712 298.501 263.136C298.053 262.539 297.455 262.059 296.709 261.696C295.962 261.333 295.055 261.152 293.989 261.152C292.111 261.152 290.639 261.696 289.573 262.784C288.506 263.851 287.802 265.397 287.461 267.424H299.813ZM287.333 273.184C287.653 275.957 288.495 277.973 289.861 279.232C291.226 280.469 292.986 281.088 295.141 281.088C296.293 281.088 297.285 280.949 298.117 280.672C298.949 280.395 299.685 280.085 300.325 279.744C300.986 279.403 301.583 279.093 302.117 278.816C302.671 278.539 303.247 278.4 303.845 278.4C304.634 278.4 305.231 278.688 305.637 279.264L308.517 282.816C307.493 283.989 306.383 284.949 305.189 285.696C304.015 286.421 302.799 286.997 301.541 287.424C300.303 287.829 299.055 288.107 297.797 288.256C296.559 288.427 295.375 288.512 294.245 288.512C291.919 288.512 289.733 288.139 287.685 287.392C285.658 286.624 283.877 285.493 282.341 284C280.826 282.507 279.621 280.651 278.725 278.432C277.85 276.213 277.413 273.632 277.413 270.688C277.413 268.469 277.786 266.368 278.533 264.384C279.301 262.4 280.389 260.661 281.797 259.168C283.226 257.675 284.943 256.491 286.949 255.616C288.975 254.741 291.258 254.304 293.797 254.304C295.994 254.304 297.999 254.645 299.813 255.328C301.647 256.011 303.215 257.003 304.517 258.304C305.839 259.605 306.863 261.205 307.589 263.104C308.335 264.981 308.708 267.115 308.708 269.504C308.708 270.251 308.677 270.859 308.613 271.328C308.549 271.797 308.431 272.171 308.261 272.448C308.09 272.725 307.855 272.917 307.557 273.024C307.279 273.131 306.917 273.184 306.469 273.184H287.333ZM330.793 274.496C328.809 274.581 327.177 274.752 325.897 275.008C324.617 275.264 323.603 275.584 322.857 275.968C322.11 276.352 321.587 276.789 321.289 277.28C321.011 277.771 320.873 278.304 320.873 278.88C320.873 280.011 321.182 280.811 321.801 281.28C322.419 281.728 323.326 281.952 324.521 281.952C325.801 281.952 326.921 281.728 327.881 281.28C328.841 280.832 329.811 280.107 330.793 279.104V274.496ZM312.937 259.424C314.942 257.653 317.161 256.341 319.593 255.488C322.046 254.613 324.67 254.176 327.465 254.176C329.47 254.176 331.273 254.507 332.873 255.168C334.494 255.808 335.859 256.715 336.969 257.888C338.099 259.04 338.963 260.416 339.561 262.016C340.158 263.616 340.457 265.365 340.457 267.264V288H335.913C334.974 288 334.259 287.872 333.769 287.616C333.299 287.36 332.905 286.827 332.585 286.016L331.881 284.192C331.049 284.896 330.249 285.515 329.481 286.048C328.713 286.581 327.913 287.04 327.081 287.424C326.27 287.787 325.395 288.053 324.457 288.224C323.539 288.416 322.515 288.512 321.385 288.512C319.87 288.512 318.494 288.32 317.257 287.936C316.019 287.531 314.963 286.944 314.089 286.176C313.235 285.408 312.574 284.459 312.105 283.328C311.635 282.176 311.401 280.853 311.401 279.36C311.401 278.165 311.699 276.96 312.297 275.744C312.894 274.507 313.929 273.387 315.401 272.384C316.873 271.36 318.857 270.507 321.353 269.824C323.849 269.141 326.995 268.757 330.793 268.672V267.264C330.793 265.323 330.387 263.925 329.577 263.072C328.787 262.197 327.657 261.76 326.185 261.76C325.011 261.76 324.051 261.888 323.305 262.144C322.558 262.4 321.886 262.688 321.289 263.008C320.713 263.328 320.147 263.616 319.593 263.872C319.038 264.128 318.377 264.256 317.609 264.256C316.926 264.256 316.35 264.085 315.881 263.744C315.411 263.403 315.027 262.997 314.729 262.528L312.937 259.424ZM358.17 288.512C356.591 288.512 355.194 288.288 353.978 287.84C352.783 287.371 351.77 286.72 350.938 285.888C350.127 285.035 349.508 284.011 349.082 282.816C348.655 281.621 348.442 280.288 348.442 278.816V261.664H345.626C345.114 261.664 344.676 261.504 344.314 261.184C343.951 260.843 343.77 260.352 343.77 259.712V255.84L349.05 254.816L351.002 246.72C351.258 245.696 351.983 245.184 353.178 245.184H358.362V254.88H366.586V261.664H358.362V278.144C358.362 278.912 358.543 279.552 358.906 280.064C359.29 280.555 359.834 280.8 360.538 280.8C360.9 280.8 361.199 280.768 361.434 280.704C361.69 280.619 361.903 280.533 362.074 280.448C362.266 280.341 362.436 280.256 362.586 280.192C362.756 280.107 362.948 280.064 363.162 280.064C363.46 280.064 363.695 280.139 363.866 280.288C364.058 280.416 364.25 280.629 364.442 280.928L367.45 285.632C366.17 286.592 364.73 287.317 363.13 287.808C361.53 288.277 359.876 288.512 358.17 288.512ZM391.188 267.424C391.188 266.635 391.081 265.867 390.868 265.12C390.676 264.373 390.345 263.712 389.876 263.136C389.428 262.539 388.83 262.059 388.084 261.696C387.337 261.333 386.43 261.152 385.364 261.152C383.486 261.152 382.014 261.696 380.948 262.784C379.881 263.851 379.177 265.397 378.836 267.424H391.188ZM378.708 273.184C379.028 275.957 379.87 277.973 381.236 279.232C382.601 280.469 384.361 281.088 386.516 281.088C387.668 281.088 388.66 280.949 389.492 280.672C390.324 280.395 391.06 280.085 391.7 279.744C392.361 279.403 392.958 279.093 393.492 278.816C394.046 278.539 394.622 278.4 395.22 278.4C396.009 278.4 396.606 278.688 397.012 279.264L399.892 282.816C398.868 283.989 397.758 284.949 396.564 285.696C395.39 286.421 394.174 286.997 392.916 287.424C391.678 287.829 390.43 288.107 389.172 288.256C387.934 288.427 386.75 288.512 385.62 288.512C383.294 288.512 381.108 288.139 379.06 287.392C377.033 286.624 375.252 285.493 373.716 284C372.201 282.507 370.996 280.651 370.1 278.432C369.225 276.213 368.788 273.632 368.788 270.688C368.788 268.469 369.161 266.368 369.908 264.384C370.676 262.4 371.764 260.661 373.172 259.168C374.601 257.675 376.318 256.491 378.324 255.616C380.35 254.741 382.633 254.304 385.172 254.304C387.369 254.304 389.374 254.645 391.188 255.328C393.022 256.011 394.59 257.003 395.892 258.304C397.214 259.605 398.238 261.205 398.964 263.104C399.71 264.981 400.083 267.115 400.083 269.504C400.083 270.251 400.052 270.859 399.988 271.328C399.924 271.797 399.806 272.171 399.636 272.448C399.465 272.725 399.23 272.917 398.932 273.024C398.654 273.131 398.292 273.184 397.844 273.184H378.708ZM233.968 356.456C235.419 356.456 236.709 356.221 237.84 355.752C238.992 355.261 239.963 354.568 240.752 353.672C241.541 352.776 242.139 351.688 242.544 350.408C242.971 349.107 243.184 347.635 243.184 345.992V318.376H254V345.992C254 348.851 253.531 351.475 252.592 353.864C251.675 356.253 250.352 358.312 248.624 360.04C246.896 361.768 244.795 363.112 242.32 364.072C239.845 365.032 237.061 365.512 233.968 365.512C230.853 365.512 228.059 365.032 225.584 364.072C223.109 363.112 221.008 361.768 219.28 360.04C217.552 358.312 216.229 356.253 215.312 353.864C214.395 351.475 213.936 348.851 213.936 345.992V318.376H224.752V345.96C224.752 347.603 224.955 349.075 225.36 350.376C225.787 351.656 226.395 352.755 227.184 353.672C227.973 354.568 228.933 355.261 230.064 355.752C231.216 356.221 232.517 356.456 233.968 356.456ZM269.325 335.4C269.965 334.803 270.626 334.248 271.309 333.736C271.991 333.224 272.717 332.797 273.485 332.456C274.274 332.093 275.117 331.816 276.013 331.624C276.93 331.411 277.922 331.304 278.989 331.304C280.802 331.304 282.402 331.624 283.789 332.264C285.197 332.883 286.381 333.757 287.341 334.888C288.301 335.997 289.026 337.331 289.517 338.888C290.007 340.424 290.253 342.099 290.253 343.912V365H280.333V343.912C280.333 342.291 279.959 341.032 279.213 340.136C278.466 339.219 277.367 338.76 275.917 338.76C274.829 338.76 273.805 338.995 272.845 339.464C271.906 339.912 270.989 340.531 270.093 341.32V365H260.173V331.816H266.317C267.554 331.816 268.365 332.371 268.749 333.48L269.325 335.4ZM298.512 365V338.632L296.336 338.184C295.589 338.013 294.981 337.747 294.512 337.384C294.064 337.021 293.84 336.488 293.84 335.784V331.88H298.512V329.992C298.512 328.093 298.81 326.376 299.408 324.84C300.026 323.304 300.901 321.992 302.032 320.904C303.184 319.816 304.581 318.973 306.224 318.376C307.866 317.779 309.733 317.48 311.824 317.48C312.634 317.48 313.381 317.533 314.064 317.64C314.746 317.725 315.461 317.875 316.208 318.088L316.016 322.92C315.994 323.261 315.909 323.549 315.76 323.784C315.61 323.997 315.408 324.179 315.152 324.328C314.917 324.456 314.661 324.552 314.384 324.616C314.106 324.68 313.829 324.712 313.552 324.712C312.677 324.712 311.898 324.797 311.216 324.968C310.533 325.139 309.957 325.448 309.488 325.896C309.04 326.323 308.698 326.899 308.464 327.624C308.229 328.328 308.112 329.224 308.112 330.312V331.88H315.888V338.664H308.432V365H298.512ZM334.094 331.304C336.611 331.304 338.904 331.699 340.974 332.488C343.043 333.277 344.814 334.408 346.286 335.88C347.779 337.352 348.931 339.144 349.742 341.256C350.574 343.347 350.99 345.704 350.99 348.328C350.99 350.973 350.574 353.363 349.742 355.496C348.931 357.608 347.779 359.411 346.286 360.904C344.814 362.376 343.043 363.517 340.974 364.328C338.904 365.117 336.611 365.512 334.094 365.512C331.555 365.512 329.24 365.117 327.15 364.328C325.08 363.517 323.288 362.376 321.774 360.904C320.28 359.411 319.118 357.608 318.286 355.496C317.475 353.363 317.07 350.973 317.07 348.328C317.07 345.704 317.475 343.347 318.286 341.256C319.118 339.144 320.28 337.352 321.774 335.88C323.288 334.408 325.08 333.277 327.15 332.488C329.24 331.699 331.555 331.304 334.094 331.304ZM334.094 358.152C336.376 358.152 338.051 357.352 339.118 355.752C340.206 354.131 340.75 351.677 340.75 348.392C340.75 345.107 340.206 342.664 339.118 341.064C338.051 339.464 336.376 338.664 334.094 338.664C331.747 338.664 330.03 339.464 328.942 341.064C327.854 342.664 327.31 345.107 327.31 348.392C327.31 351.677 327.854 354.131 328.942 355.752C330.03 357.352 331.747 358.152 334.094 358.152ZM365.265 336.936C366.289 335.144 367.462 333.736 368.785 332.712C370.129 331.688 371.665 331.176 373.393 331.176C374.886 331.176 376.102 331.528 377.041 332.232L376.401 339.528C376.294 339.997 376.113 340.317 375.857 340.488C375.622 340.659 375.292 340.744 374.865 340.744C374.694 340.744 374.47 340.733 374.193 340.712C373.916 340.691 373.628 340.669 373.329 340.648C373.03 340.605 372.721 340.573 372.401 340.552C372.102 340.509 371.825 340.488 371.569 340.488C370.118 340.488 368.956 340.872 368.081 341.64C367.228 342.408 366.502 343.475 365.905 344.84V365H355.985V331.816H361.873C362.364 331.816 362.769 331.859 363.089 331.944C363.43 332.029 363.708 332.168 363.921 332.36C364.156 332.531 364.326 332.765 364.433 333.064C364.561 333.363 364.668 333.725 364.753 334.152L365.265 336.936ZM393.062 346.664C394.705 346.664 395.889 346.259 396.615 345.448C397.361 344.616 397.735 343.549 397.735 342.248C397.735 340.904 397.361 339.848 396.615 339.08C395.889 338.312 394.705 337.928 393.062 337.928C391.42 337.928 390.225 338.312 389.479 339.08C388.753 339.848 388.391 340.904 388.391 342.248C388.391 342.888 388.476 343.475 388.647 344.008C388.839 344.541 389.127 345.011 389.511 345.416C389.895 345.8 390.375 346.109 390.951 346.344C391.548 346.557 392.252 346.664 393.062 346.664ZM400.743 366.216C400.743 365.427 400.391 364.861 399.687 364.52C398.983 364.157 398.065 363.901 396.935 363.752C395.804 363.603 394.535 363.517 393.127 363.496C391.74 363.453 390.353 363.368 388.967 363.24C388.348 363.667 387.836 364.147 387.431 364.68C387.047 365.192 386.855 365.779 386.855 366.44C386.855 366.909 386.951 367.336 387.143 367.72C387.356 368.104 387.719 368.435 388.231 368.712C388.743 368.989 389.425 369.203 390.279 369.352C391.153 369.523 392.252 369.608 393.575 369.608C395.004 369.608 396.177 369.523 397.095 369.352C398.012 369.181 398.737 368.947 399.271 368.648C399.825 368.349 400.209 367.987 400.423 367.56C400.636 367.155 400.743 366.707 400.743 366.216ZM410.535 332.84V336.456C410.535 337.011 410.375 337.448 410.055 337.768C409.756 338.088 409.233 338.333 408.487 338.504L406.087 339.048C406.215 339.517 406.311 339.997 406.375 340.488C406.46 340.979 406.503 341.491 406.503 342.024C406.503 343.688 406.151 345.181 405.447 346.504C404.764 347.827 403.815 348.957 402.599 349.896C401.404 350.813 399.985 351.528 398.343 352.04C396.7 352.531 394.94 352.776 393.062 352.776C392.551 352.776 392.049 352.765 391.559 352.744C391.068 352.701 390.588 352.637 390.119 352.552C389.393 353 389.031 353.501 389.031 354.056C389.031 354.611 389.329 355.016 389.927 355.272C390.524 355.507 391.313 355.677 392.295 355.784C393.276 355.869 394.385 355.933 395.623 355.976C396.881 355.997 398.161 356.072 399.463 356.2C400.764 356.307 402.033 356.499 403.271 356.776C404.529 357.053 405.649 357.501 406.631 358.12C407.612 358.739 408.401 359.571 408.999 360.616C409.596 361.64 409.895 362.952 409.895 364.552C409.895 366.045 409.532 367.507 408.807 368.936C408.081 370.365 407.015 371.635 405.607 372.744C404.199 373.853 402.471 374.739 400.423 375.4C398.375 376.083 396.028 376.424 393.383 376.424C390.78 376.424 388.529 376.179 386.631 375.688C384.753 375.197 383.185 374.547 381.927 373.736C380.689 372.947 379.772 372.029 379.174 370.984C378.577 369.939 378.279 368.851 378.279 367.72C378.279 366.248 378.705 365.021 379.559 364.04C380.412 363.059 381.607 362.269 383.143 361.672C382.332 361.181 381.692 360.552 381.223 359.784C380.753 359.016 380.519 358.024 380.519 356.808C380.519 356.317 380.604 355.805 380.775 355.272C380.945 354.717 381.212 354.184 381.575 353.672C381.959 353.139 382.428 352.637 382.983 352.168C383.537 351.699 384.199 351.283 384.967 350.92C383.239 350.003 381.873 348.797 380.871 347.304C379.868 345.789 379.367 344.029 379.367 342.024C379.367 340.36 379.719 338.867 380.423 337.544C381.127 336.2 382.087 335.069 383.303 334.152C384.54 333.213 385.991 332.499 387.655 332.008C389.319 331.496 391.121 331.24 393.062 331.24C395.879 331.24 398.375 331.773 400.551 332.84H410.535ZM434.688 344.424C434.688 343.635 434.581 342.867 434.368 342.12C434.176 341.373 433.845 340.712 433.376 340.136C432.928 339.539 432.33 339.059 431.584 338.696C430.837 338.333 429.93 338.152 428.864 338.152C426.986 338.152 425.514 338.696 424.448 339.784C423.381 340.851 422.677 342.397 422.336 344.424H434.688ZM422.208 350.184C422.528 352.957 423.37 354.973 424.736 356.232C426.101 357.469 427.861 358.088 430.016 358.088C431.168 358.088 432.16 357.949 432.992 357.672C433.824 357.395 434.56 357.085 435.2 356.744C435.861 356.403 436.458 356.093 436.992 355.816C437.546 355.539 438.122 355.4 438.72 355.4C439.509 355.4 440.106 355.688 440.512 356.264L443.392 359.816C442.368 360.989 441.258 361.949 440.064 362.696C438.89 363.421 437.674 363.997 436.416 364.424C435.178 364.829 433.93 365.107 432.672 365.256C431.434 365.427 430.25 365.512 429.12 365.512C426.794 365.512 424.608 365.139 422.56 364.392C420.533 363.624 418.752 362.493 417.216 361C415.701 359.507 414.496 357.651 413.6 355.432C412.725 353.213 412.288 350.632 412.288 347.688C412.288 345.469 412.661 343.368 413.408 341.384C414.176 339.4 415.264 337.661 416.672 336.168C418.101 334.675 419.818 333.491 421.824 332.616C423.85 331.741 426.133 331.304 428.672 331.304C430.869 331.304 432.874 331.645 434.688 332.328C436.522 333.011 438.09 334.003 439.392 335.304C440.714 336.605 441.738 338.205 442.464 340.104C443.21 341.981 443.583 344.115 443.583 346.504C443.583 347.251 443.552 347.859 443.488 348.328C443.424 348.797 443.306 349.171 443.136 349.448C442.965 349.725 442.73 349.917 442.432 350.024C442.154 350.131 441.792 350.184 441.344 350.184H422.208ZM459.982 365.512C458.403 365.512 457.006 365.288 455.79 364.84C454.595 364.371 453.582 363.72 452.75 362.888C451.939 362.035 451.321 361.011 450.894 359.816C450.467 358.621 450.254 357.288 450.254 355.816V338.664H447.438C446.926 338.664 446.489 338.504 446.126 338.184C445.763 337.843 445.582 337.352 445.582 336.712V332.84L450.862 331.816L452.814 323.72C453.07 322.696 453.795 322.184 454.99 322.184H460.174V331.88H472.43L474.414 323.72C474.67 322.696 475.395 322.184 476.59 322.184H481.774V331.88H489.998V338.664H481.774V355.144C481.774 355.912 481.955 356.552 482.318 357.064C482.702 357.555 483.246 357.8 483.95 357.8C484.313 357.8 484.611 357.768 484.846 357.704C485.102 357.619 485.315 357.533 485.486 357.448C485.678 357.341 485.849 357.256 485.998 357.192C486.169 357.107 486.361 357.064 486.574 357.064C486.873 357.064 487.107 357.139 487.278 357.288C487.47 357.416 487.662 357.629 487.854 357.928L490.862 362.632C489.582 363.592 488.142 364.317 486.542 364.808C484.942 365.277 483.289 365.512 481.582 365.512C480.003 365.512 478.606 365.288 477.39 364.84C476.195 364.371 475.182 363.72 474.35 362.888C473.539 362.035 472.921 361.011 472.494 359.816C472.067 358.621 471.854 357.288 471.854 355.816V338.664H460.174V355.144C460.174 355.912 460.355 356.552 460.718 357.064C461.102 357.555 461.646 357.8 462.35 357.8C462.713 357.8 463.011 357.768 463.246 357.704C463.502 357.619 463.715 357.533 463.886 357.448C464.078 357.341 464.249 357.256 464.398 357.192C464.569 357.107 464.761 357.064 464.974 357.064C465.273 357.064 465.507 357.139 465.678 357.288C465.87 357.416 466.062 357.629 466.254 357.928L469.262 362.632C467.982 363.592 466.542 364.317 464.942 364.808C463.342 365.277 461.689 365.512 459.982 365.512ZM511.418 351.496C509.434 351.581 507.802 351.752 506.522 352.008C505.242 352.264 504.228 352.584 503.482 352.968C502.735 353.352 502.212 353.789 501.914 354.28C501.636 354.771 501.498 355.304 501.498 355.88C501.498 357.011 501.807 357.811 502.426 358.28C503.044 358.728 503.951 358.952 505.146 358.952C506.426 358.952 507.546 358.728 508.506 358.28C509.466 357.832 510.436 357.107 511.418 356.104V351.496ZM493.562 336.424C495.567 334.653 497.786 333.341 500.218 332.488C502.671 331.613 505.295 331.176 508.09 331.176C510.095 331.176 511.898 331.507 513.498 332.168C515.119 332.808 516.484 333.715 517.594 334.888C518.724 336.04 519.588 337.416 520.186 339.016C520.783 340.616 521.082 342.365 521.082 344.264V365H516.538C515.599 365 514.884 364.872 514.394 364.616C513.924 364.36 513.53 363.827 513.21 363.016L512.506 361.192C511.674 361.896 510.874 362.515 510.106 363.048C509.338 363.581 508.538 364.04 507.706 364.424C506.895 364.787 506.02 365.053 505.082 365.224C504.164 365.416 503.14 365.512 502.01 365.512C500.495 365.512 499.119 365.32 497.882 364.936C496.644 364.531 495.588 363.944 494.714 363.176C493.86 362.408 493.199 361.459 492.73 360.328C492.26 359.176 492.026 357.853 492.026 356.36C492.026 355.165 492.324 353.96 492.922 352.744C493.519 351.507 494.554 350.387 496.026 349.384C497.498 348.36 499.482 347.507 501.978 346.824C504.474 346.141 507.62 345.757 511.418 345.672V344.264C511.418 342.323 511.012 340.925 510.202 340.072C509.412 339.197 508.282 338.76 506.81 338.76C505.636 338.76 504.676 338.888 503.93 339.144C503.183 339.4 502.511 339.688 501.914 340.008C501.338 340.328 500.772 340.616 500.218 340.872C499.663 341.128 499.002 341.256 498.234 341.256C497.551 341.256 496.975 341.085 496.506 340.744C496.036 340.403 495.652 339.997 495.354 339.528L493.562 336.424ZM537.343 355.976C538.089 356.787 538.9 357.363 539.775 357.704C540.649 358.045 541.535 358.216 542.431 358.216C543.369 358.216 544.233 358.045 545.023 357.704C545.812 357.341 546.484 356.765 547.039 355.976C547.615 355.165 548.063 354.109 548.383 352.808C548.703 351.485 548.863 349.864 548.863 347.944C548.863 346.28 548.735 344.872 548.479 343.72C548.244 342.547 547.881 341.597 547.391 340.872C546.921 340.125 546.324 339.592 545.599 339.272C544.895 338.931 544.084 338.76 543.167 338.76C541.951 338.76 540.895 339.027 539.999 339.56C539.103 340.093 538.217 340.872 537.343 341.896V355.976ZM537.343 335.336C538.623 334.12 540.02 333.149 541.535 332.424C543.071 331.677 544.777 331.304 546.655 331.304C548.532 331.304 550.239 331.688 551.775 332.456C553.311 333.224 554.623 334.323 555.711 335.752C556.799 337.16 557.631 338.867 558.207 340.872C558.804 342.877 559.103 345.117 559.103 347.592C559.103 350.28 558.761 352.723 558.079 354.92C557.396 357.117 556.425 359.005 555.167 360.584C553.929 362.141 552.447 363.357 550.719 364.232C548.991 365.085 547.081 365.512 544.991 365.512C543.988 365.512 543.092 365.416 542.303 365.224C541.513 365.032 540.788 364.765 540.127 364.424C539.465 364.061 538.857 363.635 538.303 363.144C537.769 362.653 537.247 362.12 536.735 361.544L536.383 363.208C536.212 363.891 535.935 364.36 535.551 364.616C535.167 364.872 534.655 365 534.015 365H527.423V317.096H537.343V335.336ZM574.093 317.096V365H564.173V317.096H574.093ZM601.438 344.424C601.438 343.635 601.331 342.867 601.118 342.12C600.926 341.373 600.595 340.712 600.126 340.136C599.678 339.539 599.08 339.059 598.334 338.696C597.587 338.333 596.68 338.152 595.614 338.152C593.736 338.152 592.264 338.696 591.198 339.784C590.131 340.851 589.427 342.397 589.086 344.424H601.438ZM588.958 350.184C589.278 352.957 590.12 354.973 591.486 356.232C592.851 357.469 594.611 358.088 596.766 358.088C597.918 358.088 598.91 357.949 599.742 357.672C600.574 357.395 601.31 357.085 601.95 356.744C602.611 356.403 603.208 356.093 603.742 355.816C604.296 355.539 604.872 355.4 605.47 355.4C606.259 355.4 606.856 355.688 607.262 356.264L610.142 359.816C609.118 360.989 608.008 361.949 606.814 362.696C605.64 363.421 604.424 363.997 603.166 364.424C601.928 364.829 600.68 365.107 599.422 365.256C598.184 365.427 597 365.512 595.87 365.512C593.544 365.512 591.358 365.139 589.31 364.392C587.283 363.624 585.502 362.493 583.966 361C582.451 359.507 581.246 357.651 580.35 355.432C579.475 353.213 579.038 350.632 579.038 347.688C579.038 345.469 579.411 343.368 580.158 341.384C580.926 339.4 582.014 337.661 583.422 336.168C584.851 334.675 586.568 333.491 588.574 332.616C590.6 331.741 592.883 331.304 595.422 331.304C597.619 331.304 599.624 331.645 601.438 332.328C603.272 333.011 604.84 334.003 606.142 335.304C607.464 336.605 608.488 338.205 609.214 340.104C609.96 341.981 610.333 344.115 610.333 346.504C610.333 347.251 610.302 347.859 610.238 348.328C610.174 348.797 610.056 349.171 609.886 349.448C609.715 349.725 609.48 349.917 609.182 350.024C608.904 350.131 608.542 350.184 608.094 350.184H588.958ZM225.392 403.696V414.576H240.048V422.576H225.392V433.68H244.528V442H214.512V395.376H244.528V403.696H225.392ZM280.499 408.816L267.635 442H258.611L245.747 408.816H254.003C254.707 408.816 255.294 408.987 255.763 409.328C256.254 409.648 256.584 410.053 256.755 410.544L261.363 425.424C261.768 426.64 262.12 427.824 262.419 428.976C262.739 430.128 263.016 431.28 263.251 432.432C263.72 430.128 264.371 427.792 265.203 425.424L270.003 410.544C270.174 410.053 270.494 409.648 270.963 409.328C271.432 408.987 271.987 408.816 272.627 408.816H280.499ZM303.25 421.424C303.25 420.635 303.143 419.867 302.93 419.12C302.738 418.373 302.407 417.712 301.938 417.136C301.49 416.539 300.893 416.059 300.146 415.696C299.399 415.333 298.493 415.152 297.426 415.152C295.549 415.152 294.077 415.696 293.01 416.784C291.943 417.851 291.239 419.397 290.898 421.424H303.25ZM290.77 427.184C291.09 429.957 291.933 431.973 293.298 433.232C294.663 434.469 296.423 435.088 298.578 435.088C299.73 435.088 300.722 434.949 301.554 434.672C302.386 434.395 303.122 434.085 303.762 433.744C304.423 433.403 305.021 433.093 305.554 432.816C306.109 432.539 306.685 432.4 307.282 432.4C308.071 432.4 308.669 432.688 309.074 433.264L311.954 436.816C310.93 437.989 309.821 438.949 308.626 439.696C307.453 440.421 306.237 440.997 304.978 441.424C303.741 441.829 302.493 442.107 301.234 442.256C299.997 442.427 298.813 442.512 297.682 442.512C295.357 442.512 293.17 442.139 291.122 441.392C289.095 440.624 287.314 439.493 285.778 438C284.263 436.507 283.058 434.651 282.162 432.432C281.287 430.213 280.85 427.632 280.85 424.688C280.85 422.469 281.223 420.368 281.97 418.384C282.738 416.4 283.826 414.661 285.234 413.168C286.663 411.675 288.381 410.491 290.386 409.616C292.413 408.741 294.695 408.304 297.234 408.304C299.431 408.304 301.437 408.645 303.25 409.328C305.085 410.011 306.653 411.003 307.954 412.304C309.277 413.605 310.301 415.205 311.026 417.104C311.773 418.981 312.146 421.115 312.146 423.504C312.146 424.251 312.114 424.859 312.05 425.328C311.986 425.797 311.869 426.171 311.698 426.448C311.527 426.725 311.293 426.917 310.994 427.024C310.717 427.131 310.354 427.184 309.906 427.184H290.77ZM326.262 412.4C326.902 411.803 327.563 411.248 328.246 410.736C328.929 410.224 329.654 409.797 330.422 409.456C331.211 409.093 332.054 408.816 332.95 408.624C333.867 408.411 334.859 408.304 335.926 408.304C337.739 408.304 339.339 408.624 340.726 409.264C342.134 409.883 343.318 410.757 344.278 411.888C345.238 412.997 345.963 414.331 346.454 415.888C346.945 417.424 347.19 419.099 347.19 420.912V442H337.27V420.912C337.27 419.291 336.897 418.032 336.15 417.136C335.403 416.219 334.305 415.76 332.854 415.76C331.766 415.76 330.742 415.995 329.782 416.464C328.843 416.912 327.926 417.531 327.03 418.32V442H317.11V408.816H323.254C324.491 408.816 325.302 409.371 325.686 410.48L326.262 412.4ZM365.045 442.512C363.466 442.512 362.069 442.288 360.853 441.84C359.658 441.371 358.645 440.72 357.812 439.888C357.002 439.035 356.383 438.011 355.957 436.816C355.53 435.621 355.317 434.288 355.317 432.816V415.664H352.501C351.989 415.664 351.551 415.504 351.189 415.184C350.826 414.843 350.645 414.352 350.645 413.712V409.84L355.925 408.816L357.877 400.72C358.133 399.696 358.858 399.184 360.053 399.184H365.237V408.88H373.461V415.664H365.237V432.144C365.237 432.912 365.418 433.552 365.781 434.064C366.165 434.555 366.709 434.8 367.413 434.8C367.775 434.8 368.074 434.768 368.309 434.704C368.565 434.619 368.778 434.533 368.949 434.448C369.141 434.341 369.311 434.256 369.461 434.192C369.631 434.107 369.823 434.064 370.037 434.064C370.335 434.064 370.57 434.139 370.741 434.288C370.933 434.416 371.125 434.629 371.317 434.928L374.325 439.632C373.045 440.592 371.605 441.317 370.005 441.808C368.405 442.277 366.751 442.512 365.045 442.512ZM446.116 395.376V442H436.58V415.184C436.58 414.565 436.59 413.893 436.612 413.168C436.654 412.443 436.718 411.707 436.804 410.96L424.42 434.928C424.036 435.675 423.513 436.24 422.852 436.624C422.212 437.008 421.476 437.2 420.644 437.2H419.172C418.34 437.2 417.593 437.008 416.932 436.624C416.292 436.24 415.78 435.675 415.396 434.928L403.012 410.896C403.076 411.664 403.129 412.421 403.172 413.168C403.214 413.893 403.236 414.565 403.236 415.184V442H393.7V395.376H401.956C402.425 395.376 402.83 395.387 403.172 395.408C403.534 395.429 403.854 395.493 404.132 395.6C404.409 395.707 404.654 395.877 404.868 396.112C405.102 396.325 405.326 396.635 405.54 397.04L417.54 420.688C417.966 421.499 418.372 422.341 418.756 423.216C419.161 424.091 419.545 424.987 419.908 425.904C420.27 424.965 420.644 424.048 421.028 423.152C421.433 422.256 421.86 421.403 422.308 420.592L434.276 397.04C434.489 396.635 434.702 396.325 434.916 396.112C435.15 395.877 435.406 395.707 435.684 395.6C435.961 395.493 436.27 395.429 436.612 395.408C436.974 395.387 437.39 395.376 437.86 395.376H446.116ZM473.625 421.424C473.625 420.635 473.518 419.867 473.305 419.12C473.113 418.373 472.782 417.712 472.313 417.136C471.865 416.539 471.268 416.059 470.521 415.696C469.774 415.333 468.868 415.152 467.801 415.152C465.924 415.152 464.452 415.696 463.385 416.784C462.318 417.851 461.614 419.397 461.273 421.424H473.625ZM461.145 427.184C461.465 429.957 462.308 431.973 463.673 433.232C465.038 434.469 466.798 435.088 468.953 435.088C470.105 435.088 471.097 434.949 471.929 434.672C472.761 434.395 473.497 434.085 474.137 433.744C474.798 433.403 475.396 433.093 475.929 432.816C476.484 432.539 477.06 432.4 477.657 432.4C478.446 432.4 479.044 432.688 479.449 433.264L482.329 436.816C481.305 437.989 480.196 438.949 479.001 439.696C477.828 440.421 476.612 440.997 475.353 441.424C474.116 441.829 472.868 442.107 471.609 442.256C470.372 442.427 469.188 442.512 468.057 442.512C465.732 442.512 463.545 442.139 461.497 441.392C459.47 440.624 457.689 439.493 456.153 438C454.638 436.507 453.433 434.651 452.537 432.432C451.662 430.213 451.225 427.632 451.225 424.688C451.225 422.469 451.598 420.368 452.345 418.384C453.113 416.4 454.201 414.661 455.609 413.168C457.038 411.675 458.756 410.491 460.761 409.616C462.788 408.741 465.07 408.304 467.609 408.304C469.806 408.304 471.812 408.645 473.625 409.328C475.46 410.011 477.028 411.003 478.329 412.304C479.652 413.605 480.676 415.205 481.401 417.104C482.148 418.981 482.521 421.115 482.521 423.504C482.521 424.251 482.489 424.859 482.425 425.328C482.361 425.797 482.244 426.171 482.073 426.448C481.902 426.725 481.668 426.917 481.369 427.024C481.092 427.131 480.729 427.184 480.281 427.184H461.145ZM487.485 442V408.816H493.629C494.866 408.816 495.677 409.371 496.061 410.48L496.605 412.272C497.16 411.696 497.736 411.173 498.333 410.704C498.93 410.213 499.57 409.797 500.253 409.456C500.957 409.093 501.704 408.816 502.493 408.624C503.304 408.411 504.189 408.304 505.149 408.304C507.154 408.304 508.808 408.827 510.109 409.872C511.432 410.896 512.434 412.272 513.117 414C513.672 412.976 514.344 412.101 515.133 411.376C515.944 410.651 516.808 410.064 517.725 409.616C518.664 409.168 519.645 408.837 520.669 408.624C521.714 408.411 522.749 408.304 523.773 408.304C525.672 408.304 527.357 408.592 528.829 409.168C530.301 409.723 531.528 410.544 532.509 411.632C533.512 412.699 534.269 414.021 534.781 415.6C535.293 417.157 535.549 418.928 535.549 420.912V442H525.629V420.912C525.629 417.477 524.157 415.76 521.213 415.76C519.869 415.76 518.749 416.208 517.853 417.104C516.978 417.979 516.541 419.248 516.541 420.912V442H506.621V420.912C506.621 419.013 506.248 417.68 505.501 416.912C504.754 416.144 503.656 415.76 502.205 415.76C501.309 415.76 500.456 415.963 499.645 416.368C498.856 416.773 498.109 417.317 497.405 418V442H487.485ZM557.219 408.304C559.736 408.304 562.029 408.699 564.099 409.488C566.168 410.277 567.939 411.408 569.411 412.88C570.904 414.352 572.056 416.144 572.867 418.256C573.699 420.347 574.115 422.704 574.115 425.328C574.115 427.973 573.699 430.363 572.867 432.496C572.056 434.608 570.904 436.411 569.411 437.904C567.939 439.376 566.168 440.517 564.099 441.328C562.029 442.117 559.736 442.512 557.219 442.512C554.68 442.512 552.365 442.117 550.275 441.328C548.205 440.517 546.413 439.376 544.899 437.904C543.405 436.411 542.243 434.608 541.411 432.496C540.6 430.363 540.195 427.973 540.195 425.328C540.195 422.704 540.6 420.347 541.411 418.256C542.243 416.144 543.405 414.352 544.899 412.88C546.413 411.408 548.205 410.277 550.275 409.488C552.365 408.699 554.68 408.304 557.219 408.304ZM557.219 435.152C559.501 435.152 561.176 434.352 562.243 432.752C563.331 431.131 563.875 428.677 563.875 425.392C563.875 422.107 563.331 419.664 562.243 418.064C561.176 416.464 559.501 415.664 557.219 415.664C554.872 415.664 553.155 416.464 552.067 418.064C550.979 419.664 550.435 422.107 550.435 425.392C550.435 428.677 550.979 431.131 552.067 432.752C553.155 434.352 554.872 435.152 557.219 435.152ZM588.39 413.936C589.414 412.144 590.587 410.736 591.91 409.712C593.254 408.688 594.79 408.176 596.518 408.176C598.011 408.176 599.227 408.528 600.166 409.232L599.526 416.528C599.419 416.997 599.238 417.317 598.982 417.488C598.747 417.659 598.417 417.744 597.99 417.744C597.819 417.744 597.595 417.733 597.318 417.712C597.041 417.691 596.753 417.669 596.454 417.648C596.155 417.605 595.846 417.573 595.526 417.552C595.227 417.509 594.95 417.488 594.694 417.488C593.243 417.488 592.081 417.872 591.206 418.64C590.353 419.408 589.627 420.475 589.03 421.84V442H579.11V408.816H584.998C585.489 408.816 585.894 408.859 586.214 408.944C586.555 409.029 586.833 409.168 587.046 409.36C587.281 409.531 587.451 409.765 587.558 410.064C587.686 410.363 587.793 410.725 587.878 411.152L588.39 413.936ZM613.692 408.816V442H603.772V408.816H613.692ZM614.716 399.728C614.716 400.517 614.556 401.264 614.236 401.968C613.916 402.651 613.478 403.259 612.924 403.792C612.369 404.304 611.718 404.72 610.972 405.04C610.246 405.339 609.468 405.488 608.635 405.488C607.825 405.488 607.068 405.339 606.364 405.04C605.66 404.72 605.03 404.304 604.476 403.792C603.942 403.259 603.516 402.651 603.196 401.968C602.897 401.264 602.748 400.517 602.748 399.728C602.748 398.917 602.897 398.16 603.196 397.456C603.516 396.752 603.942 396.133 604.476 395.6C605.03 395.067 605.66 394.651 606.364 394.352C607.068 394.053 607.825 393.904 608.635 393.904C609.468 393.904 610.246 394.053 610.972 394.352C611.718 394.651 612.369 395.067 612.924 395.6C613.478 396.133 613.916 396.752 614.236 397.456C614.556 398.16 614.716 398.917 614.716 399.728ZM641.25 421.424C641.25 420.635 641.143 419.867 640.93 419.12C640.738 418.373 640.407 417.712 639.938 417.136C639.49 416.539 638.893 416.059 638.146 415.696C637.399 415.333 636.493 415.152 635.426 415.152C633.549 415.152 632.077 415.696 631.01 416.784C629.943 417.851 629.239 419.397 628.898 421.424H641.25ZM628.77 427.184C629.09 429.957 629.933 431.973 631.298 433.232C632.663 434.469 634.423 435.088 636.578 435.088C637.73 435.088 638.722 434.949 639.554 434.672C640.386 434.395 641.122 434.085 641.762 433.744C642.423 433.403 643.021 433.093 643.554 432.816C644.109 432.539 644.685 432.4 645.282 432.4C646.071 432.4 646.669 432.688 647.074 433.264L649.954 436.816C648.93 437.989 647.821 438.949 646.626 439.696C645.453 440.421 644.237 440.997 642.978 441.424C641.741 441.829 640.493 442.107 639.234 442.256C637.997 442.427 636.813 442.512 635.682 442.512C633.357 442.512 631.17 442.139 629.122 441.392C627.095 440.624 625.314 439.493 623.778 438C622.263 436.507 621.058 434.651 620.162 432.432C619.287 430.213 618.85 427.632 618.85 424.688C618.85 422.469 619.223 420.368 619.97 418.384C620.738 416.4 621.826 414.661 623.234 413.168C624.663 411.675 626.381 410.491 628.386 409.616C630.413 408.741 632.695 408.304 635.234 408.304C637.431 408.304 639.437 408.645 641.25 409.328C643.085 410.011 644.653 411.003 645.954 412.304C647.277 413.605 648.301 415.205 649.026 417.104C649.773 418.981 650.146 421.115 650.146 423.504C650.146 424.251 650.114 424.859 650.05 425.328C649.986 425.797 649.869 426.171 649.698 426.448C649.527 426.725 649.293 426.917 648.994 427.024C648.717 427.131 648.354 427.184 647.906 427.184H628.77ZM676.198 416.08C675.942 416.485 675.665 416.773 675.366 416.944C675.089 417.115 674.726 417.2 674.278 417.2C673.809 417.2 673.339 417.104 672.87 416.912C672.401 416.699 671.889 416.475 671.334 416.24C670.801 416.005 670.193 415.792 669.51 415.6C668.827 415.387 668.049 415.28 667.174 415.28C665.915 415.28 664.945 415.525 664.262 416.016C663.601 416.485 663.27 417.147 663.27 418C663.27 418.619 663.483 419.131 663.91 419.536C664.358 419.941 664.945 420.304 665.67 420.624C666.395 420.923 667.217 421.211 668.134 421.488C669.051 421.765 669.99 422.075 670.95 422.416C671.91 422.757 672.849 423.163 673.766 423.632C674.683 424.08 675.505 424.645 676.23 425.328C676.955 425.989 677.531 426.8 677.958 427.76C678.406 428.72 678.63 429.872 678.63 431.216C678.63 432.859 678.331 434.373 677.734 435.76C677.137 437.147 676.241 438.341 675.046 439.344C673.873 440.347 672.411 441.125 670.662 441.68C668.934 442.235 666.939 442.512 664.678 442.512C663.547 442.512 662.417 442.405 661.286 442.192C660.155 441.979 659.057 441.691 657.99 441.328C656.945 440.965 655.974 440.539 655.078 440.048C654.182 439.536 653.414 438.992 652.774 438.416L655.078 434.768C655.334 434.341 655.654 434.011 656.038 433.776C656.443 433.52 656.955 433.392 657.574 433.392C658.15 433.392 658.662 433.52 659.11 433.776C659.579 434.032 660.081 434.309 660.614 434.608C661.147 434.907 661.766 435.184 662.47 435.44C663.195 435.696 664.102 435.824 665.19 435.824C665.958 435.824 666.609 435.749 667.142 435.6C667.675 435.429 668.102 435.205 668.422 434.928C668.742 434.651 668.977 434.341 669.126 434C669.275 433.659 669.35 433.307 669.35 432.944C669.35 432.283 669.126 431.739 668.678 431.312C668.23 430.885 667.643 430.523 666.918 430.224C666.193 429.904 665.361 429.616 664.422 429.36C663.505 429.083 662.566 428.773 661.606 428.432C660.646 428.091 659.697 427.685 658.758 427.216C657.841 426.725 657.019 426.117 656.294 425.392C655.569 424.645 654.982 423.739 654.534 422.672C654.086 421.605 653.862 420.315 653.862 418.8C653.862 417.392 654.129 416.059 654.662 414.8C655.217 413.52 656.038 412.4 657.126 411.44C658.214 410.48 659.579 409.723 661.222 409.168C662.865 408.592 664.785 408.304 666.982 408.304C668.177 408.304 669.329 408.411 670.438 408.624C671.569 408.837 672.625 409.136 673.606 409.52C674.587 409.904 675.483 410.363 676.294 410.896C677.105 411.408 677.819 411.973 678.438 412.592L676.198 416.08Z" fill="black"/>
<rect x="210" y="497" width="294" height="50" rx="5" fill="white"/>
<path d="M284.056 530.336C282.728 530.336 281.496 530.128 280.36 529.712C279.24 529.28 278.264 528.672 277.432 527.888C276.616 527.104 275.976 526.184 275.512 525.128C275.048 524.056 274.816 522.88 274.816 521.6C274.816 520.32 275.048 519.152 275.512 518.096C275.976 517.024 276.616 516.096 277.432 515.312C278.264 514.528 279.24 513.928 280.36 513.512C281.496 513.08 282.728 512.864 284.056 512.864C285.608 512.864 286.992 513.136 288.208 513.68C289.44 514.224 290.464 515.008 291.28 516.032L288.256 518.768C287.712 518.128 287.112 517.64 286.456 517.304C285.816 516.968 285.096 516.8 284.296 516.8C283.608 516.8 282.976 516.912 282.4 517.136C281.824 517.36 281.328 517.688 280.912 518.12C280.512 518.536 280.192 519.04 279.952 519.632C279.728 520.224 279.616 520.88 279.616 521.6C279.616 522.32 279.728 522.976 279.952 523.568C280.192 524.16 280.512 524.672 280.912 525.104C281.328 525.52 281.824 525.84 282.4 526.064C282.976 526.288 283.608 526.4 284.296 526.4C285.096 526.4 285.816 526.232 286.456 525.896C287.112 525.56 287.712 525.072 288.256 524.432L291.28 527.168C290.464 528.176 289.44 528.96 288.208 529.52C286.992 530.064 285.608 530.336 284.056 530.336ZM293.183 530V516.992H297.527V520.784L296.879 519.704C297.263 518.728 297.887 518 298.751 517.52C299.615 517.024 300.663 516.776 301.895 516.776V520.88C301.687 520.848 301.503 520.832 301.343 520.832C301.199 520.816 301.039 520.808 300.863 520.808C299.935 520.808 299.183 521.064 298.607 521.576C298.031 522.072 297.743 522.888 297.743 524.024V530H293.183ZM310.475 530.216C308.939 530.216 307.595 529.928 306.443 529.352C305.307 528.76 304.419 527.96 303.779 526.952C303.155 525.928 302.843 524.768 302.843 523.472C302.843 522.176 303.147 521.024 303.755 520.016C304.379 518.992 305.235 518.2 306.323 517.64C307.411 517.064 308.635 516.776 309.995 516.776C311.275 516.776 312.443 517.04 313.499 517.568C314.555 518.08 315.395 518.84 316.019 519.848C316.643 520.856 316.955 522.08 316.955 523.52C316.955 523.68 316.947 523.864 316.931 524.072C316.915 524.28 316.899 524.472 316.883 524.648H306.587V522.248H314.459L312.731 522.92C312.747 522.328 312.635 521.816 312.395 521.384C312.171 520.952 311.851 520.616 311.435 520.376C311.035 520.136 310.563 520.016 310.019 520.016C309.475 520.016 308.995 520.136 308.579 520.376C308.179 520.616 307.867 520.96 307.643 521.408C307.419 521.84 307.307 522.352 307.307 522.944V523.64C307.307 524.28 307.435 524.832 307.691 525.296C307.963 525.76 308.347 526.12 308.843 526.376C309.339 526.616 309.931 526.736 310.619 526.736C311.259 526.736 311.803 526.648 312.251 526.472C312.715 526.28 313.171 525.992 313.619 525.608L316.019 528.104C315.395 528.792 314.627 529.32 313.715 529.688C312.803 530.04 311.723 530.216 310.475 530.216ZM326.65 530V527.576L326.338 526.976V522.512C326.338 521.792 326.114 521.24 325.666 520.856C325.234 520.456 324.538 520.256 323.578 520.256C322.954 520.256 322.322 520.36 321.682 520.568C321.042 520.76 320.498 521.032 320.05 521.384L318.514 518.288C319.25 517.808 320.13 517.44 321.154 517.184C322.194 516.912 323.226 516.776 324.25 516.776C326.362 516.776 327.994 517.264 329.146 518.24C330.314 519.2 330.898 520.712 330.898 522.776V530H326.65ZM322.81 530.216C321.77 530.216 320.89 530.04 320.17 529.688C319.45 529.336 318.898 528.856 318.514 528.248C318.146 527.64 317.962 526.96 317.962 526.208C317.962 525.408 318.162 524.72 318.562 524.144C318.978 523.552 319.61 523.104 320.458 522.8C321.306 522.48 322.402 522.32 323.746 522.32H326.818V524.696H324.37C323.634 524.696 323.114 524.816 322.81 525.056C322.522 525.296 322.378 525.616 322.378 526.016C322.378 526.416 322.53 526.736 322.834 526.976C323.138 527.216 323.554 527.336 324.082 527.336C324.578 527.336 325.026 527.216 325.426 526.976C325.842 526.72 326.146 526.336 326.338 525.824L326.962 527.504C326.722 528.4 326.25 529.08 325.546 529.544C324.858 529.992 323.946 530.216 322.81 530.216ZM339.585 530.216C337.921 530.216 336.625 529.808 335.697 528.992C334.769 528.16 334.305 526.912 334.305 525.248V514.088H338.865V525.2C338.865 525.664 338.993 526.032 339.249 526.304C339.505 526.56 339.833 526.688 340.233 526.688C340.777 526.688 341.241 526.552 341.625 526.28L342.753 529.472C342.369 529.728 341.897 529.912 341.337 530.024C340.777 530.152 340.193 530.216 339.585 530.216ZM332.409 520.88V517.472H341.841V520.88H332.409ZM350.952 530.216C349.416 530.216 348.072 529.928 346.92 529.352C345.784 528.76 344.896 527.96 344.256 526.952C343.632 525.928 343.32 524.768 343.32 523.472C343.32 522.176 343.624 521.024 344.232 520.016C344.856 518.992 345.712 518.2 346.8 517.64C347.888 517.064 349.112 516.776 350.472 516.776C351.752 516.776 352.92 517.04 353.976 517.568C355.032 518.08 355.872 518.84 356.496 519.848C357.12 520.856 357.432 522.08 357.432 523.52C357.432 523.68 357.424 523.864 357.408 524.072C357.392 524.28 357.376 524.472 357.36 524.648H347.064V522.248H354.936L353.208 522.92C353.224 522.328 353.112 521.816 352.872 521.384C352.648 520.952 352.328 520.616 351.912 520.376C351.512 520.136 351.04 520.016 350.496 520.016C349.952 520.016 349.472 520.136 349.056 520.376C348.656 520.616 348.344 520.96 348.12 521.408C347.896 521.84 347.784 522.352 347.784 522.944V523.64C347.784 524.28 347.912 524.832 348.168 525.296C348.44 525.76 348.824 526.12 349.32 526.376C349.816 526.616 350.408 526.736 351.096 526.736C351.736 526.736 352.28 526.648 352.728 526.472C353.192 526.28 353.648 525.992 354.096 525.608L356.496 528.104C355.872 528.792 355.104 529.32 354.192 529.688C353.28 530.04 352.2 530.216 350.952 530.216ZM371.103 519.704H378.903V523.256H371.103V519.704ZM371.439 526.328H380.223V530H366.735V513.2H379.911V516.872H371.439V526.328ZM386.221 530L380.869 516.992H385.549L389.821 527.864H387.469L391.957 516.992H396.301L390.925 530H386.221ZM403.944 530.216C402.408 530.216 401.064 529.928 399.912 529.352C398.776 528.76 397.888 527.96 397.248 526.952C396.624 525.928 396.312 524.768 396.312 523.472C396.312 522.176 396.616 521.024 397.224 520.016C397.848 518.992 398.704 518.2 399.792 517.64C400.88 517.064 402.104 516.776 403.464 516.776C404.744 516.776 405.912 517.04 406.968 517.568C408.024 518.08 408.864 518.84 409.488 519.848C410.112 520.856 410.424 522.08 410.424 523.52C410.424 523.68 410.416 523.864 410.4 524.072C410.384 524.28 410.368 524.472 410.352 524.648H400.056V522.248H407.928L406.2 522.92C406.216 522.328 406.104 521.816 405.864 521.384C405.64 520.952 405.32 520.616 404.904 520.376C404.504 520.136 404.032 520.016 403.488 520.016C402.944 520.016 402.464 520.136 402.048 520.376C401.648 520.616 401.336 520.96 401.112 521.408C400.888 521.84 400.776 522.352 400.776 522.944V523.64C400.776 524.28 400.904 524.832 401.16 525.296C401.432 525.76 401.816 526.12 402.312 526.376C402.808 526.616 403.4 526.736 404.088 526.736C404.728 526.736 405.272 526.648 405.72 526.472C406.184 526.28 406.64 525.992 407.088 525.608L409.488 528.104C408.864 528.792 408.096 529.32 407.184 529.688C406.272 530.04 405.192 530.216 403.944 530.216ZM420.999 516.776C422.007 516.776 422.919 516.984 423.734 517.4C424.551 517.8 425.191 518.424 425.655 519.272C426.135 520.12 426.375 521.216 426.375 522.56V530H421.815V523.304C421.815 522.376 421.623 521.704 421.239 521.288C420.871 520.856 420.351 520.64 419.679 520.64C419.199 520.64 418.759 520.752 418.359 520.976C417.959 521.184 417.647 521.512 417.423 521.96C417.199 522.408 417.087 522.992 417.087 523.712V530H412.527V516.992H416.871V520.688L416.031 519.608C416.527 518.664 417.207 517.96 418.071 517.496C418.935 517.016 419.911 516.776 420.999 516.776ZM435.045 530.216C433.381 530.216 432.085 529.808 431.157 528.992C430.229 528.16 429.765 526.912 429.765 525.248V514.088H434.325V525.2C434.325 525.664 434.453 526.032 434.709 526.304C434.965 526.56 435.293 526.688 435.693 526.688C436.237 526.688 436.701 526.552 437.085 526.28L438.213 529.472C437.829 529.728 437.357 529.912 436.797 530.024C436.237 530.152 435.653 530.216 435.045 530.216ZM427.869 520.88V517.472H437.301V520.88H427.869Z" fill="#253DA1"/>
<defs>
<linearGradient id="paint0_linear_617_12" x1="854" y1="0" x2="-3.38914e-05" y2="681" gradientUnits="userSpaceOnUse">
<stop stop-color="#253DA1"/>
<stop offset="0.967234" stop-color="#74BBCD"/>
<stop offset="1" stop-color="#B0DBF1"/>
</linearGradient>
</defs>
</svg>
