<svg width="33" height="33" viewBox="0 0 33 33" fill="none" xmlns="http://www.w3.org/2000/svg">
<path d="M13.5498 27.0996C6.0453 27.0996 0 21.0543 0 13.5498C0 6.0453 6.0453 0 13.5498 0C21.0543 0 27.0996 6.0453 27.0996 13.5498C27.0996 21.0543 21.0543 27.0996 13.5498 27.0996ZM13.5498 2.08459C7.19182 2.08459 2.08459 7.19182 2.08459 13.5498C2.08459 19.9078 7.19182 25.015 13.5498 25.015C19.9078 25.015 25.015 19.9078 25.015 13.5498C25.015 7.19182 19.9078 2.08459 13.5498 2.08459Z" fill="#D5D4DC"/>
<path d="M23.6413 22.166L33.0011 31.5258L31.5273 32.9996L22.1675 23.6398L23.6413 22.166Z" fill="#D5D4DC"/>
</svg>
