<svg width="178" height="57" viewBox="0 0 178 57" fill="none" xmlns="http://www.w3.org/2000/svg">
<path fill-rule="evenodd" clip-rule="evenodd" d="M52.6107 13.3575C47.5743 5.33393 38.6477 0 28.4754 0C12.7489 0 0 12.7489 0 28.4754C0 44.2019 12.7489 56.9508 28.4754 56.9508C39.4193 56.9508 48.9212 50.777 53.6884 41.7223L40.2134 51.5125L46.6065 31.8364L29.8691 19.676H50.5577L52.6107 13.3575Z" fill="#02055A"/>
<path d="M65.6714 33.9754H55.3201V19.5597H65.6714V21.4017H59.2944V25.8566H64.2198V27.6886H59.2944V32.1334H65.6714V33.9754ZM73.5199 33.9754H70.4766L66.272 22.4128H69.6557L72.7391 31.6228L75.7323 22.4128H78.0749L73.5199 33.9754ZM82.0492 28.4894C82.463 28.5829 82.8767 28.6563 83.2905 28.7097C83.7043 28.7631 84.1214 28.7898 84.5419 28.7898C84.9824 28.7898 85.3895 28.7497 85.7632 28.6696C86.1436 28.5829 86.4706 28.4427 86.7443 28.2492C87.0246 28.0489 87.2448 27.7853 87.405 27.4583C87.5652 27.1313 87.6453 26.7242 87.6453 26.237C87.6453 25.8432 87.5919 25.4828 87.4851 25.1558C87.3783 24.8288 87.2181 24.5485 87.0046 24.3149C86.7977 24.0813 86.5407 23.9011 86.2337 23.7743C85.9267 23.6408 85.5697 23.5741 85.1626 23.5741C84.7821 23.5741 84.4384 23.6442 84.1314 23.7843C83.8311 23.9245 83.5642 24.1147 83.3306 24.3549C83.1037 24.5885 82.9068 24.8622 82.7399 25.1758C82.5797 25.4895 82.4463 25.8165 82.3395 26.1569C82.2327 26.4973 82.156 26.841 82.1092 27.188C82.0625 27.5351 82.0392 27.8621 82.0392 28.1691C82.0392 28.2225 82.0392 28.2759 82.0392 28.3293C82.0392 28.3826 82.0425 28.436 82.0492 28.4894ZM90.3882 26.2069C90.3882 26.6808 90.3115 27.1046 90.158 27.4783C90.0045 27.8454 89.7943 28.1691 89.5273 28.4494C89.267 28.7297 88.9634 28.9666 88.6163 29.1602C88.2693 29.3537 87.8989 29.5139 87.5051 29.6407C87.1113 29.7608 86.7042 29.8476 86.2838 29.901C85.87 29.9544 85.4662 29.981 85.0725 29.981C84.5719 29.981 84.078 29.9477 83.5908 29.8809C83.1037 29.8075 82.6231 29.6941 82.1493 29.5406C82.2227 29.981 82.3395 30.4015 82.4997 30.8019C82.6598 31.1957 82.8734 31.5427 83.1404 31.8431C83.4073 32.1367 83.7343 32.3703 84.1214 32.5438C84.5152 32.7174 84.979 32.8041 85.5129 32.8041C85.8667 32.8041 86.2037 32.7507 86.524 32.6439C86.8444 32.5372 87.138 32.387 87.405 32.1935C87.6719 31.9999 87.9055 31.7697 88.1058 31.5027C88.3126 31.2357 88.4795 30.9388 88.6063 30.6117L90.0679 31.1523C89.8476 31.6796 89.544 32.1367 89.1569 32.5238C88.7765 32.9042 88.3427 33.2212 87.8555 33.4748C87.375 33.7218 86.8611 33.9053 86.3138 34.0254C85.7732 34.1456 85.236 34.2056 84.7021 34.2056C83.8211 34.2056 83.0069 34.0588 82.2594 33.7652C81.5119 33.4648 80.8679 33.0477 80.3273 32.5138C79.7867 31.9799 79.3629 31.3425 79.0559 30.6017C78.7489 29.8609 78.5954 29.05 78.5954 28.1691C78.5954 27.2881 78.7489 26.4772 79.0559 25.7364C79.3629 24.9956 79.7867 24.3583 80.3273 23.8244C80.8679 23.2904 81.5119 22.8767 82.2594 22.583C83.0069 22.2827 83.8211 22.1325 84.7021 22.1325C85.1292 22.1325 85.5663 22.1626 86.0135 22.2226C86.4606 22.2827 86.8944 22.3795 87.3149 22.5129C87.7354 22.6397 88.1324 22.8066 88.5062 23.0135C88.8799 23.2204 89.2036 23.4773 89.4772 23.7843C89.7575 24.0846 89.9778 24.435 90.138 24.8355C90.3048 25.2359 90.3882 25.6931 90.3882 26.2069ZM104.323 27.3482C104.323 28.129 104.227 28.9433 104.033 29.7908C103.846 30.6384 103.583 31.4693 103.242 32.2835C102.902 33.0978 102.495 33.8619 102.021 34.576C101.547 35.2968 101.026 35.9175 100.459 36.4381L99.1878 35.7473C99.368 35.4136 99.5382 35.0399 99.6984 34.6261C99.8585 34.2123 100.002 33.7752 100.129 33.3147C100.262 32.8475 100.379 32.367 100.479 31.8731C100.586 31.3792 100.673 30.892 100.739 30.4115C100.813 29.9243 100.866 29.4538 100.9 29C100.94 28.5395 100.96 28.1123 100.96 27.7186C100.96 27.4583 100.95 27.1813 100.93 26.8877C100.91 26.5874 100.866 26.2904 100.8 25.9967C100.739 25.6964 100.656 25.4094 100.549 25.1358C100.442 24.8622 100.299 24.6219 100.119 24.415C99.9453 24.2081 99.7317 24.0413 99.4781 23.9145C99.2312 23.7877 98.9375 23.7242 98.5972 23.7242C98.2635 23.7242 97.9665 23.801 97.7062 23.9545C97.4459 24.1013 97.2157 24.2982 97.0154 24.5451C96.8152 24.7854 96.6417 25.0624 96.4949 25.376C96.3547 25.6897 96.2379 26.0134 96.1445 26.3471C96.0577 26.6741 95.9943 26.9978 95.9543 27.3182C95.9142 27.6385 95.8942 27.9255 95.8942 28.1791V33.9754H92.5005V22.4128H93.8019L95.3536 25.1057C95.5405 24.6586 95.7741 24.2515 96.0544 23.8844C96.3347 23.5174 96.6517 23.2037 97.0054 22.9434C97.3591 22.6831 97.7496 22.4829 98.1767 22.3427C98.6105 22.2026 99.0777 22.1325 99.5782 22.1325C100.379 22.1325 101.077 22.2627 101.67 22.5229C102.264 22.7832 102.758 23.147 103.152 23.6141C103.546 24.0746 103.84 24.6252 104.033 25.2659C104.227 25.8999 104.323 26.594 104.323 27.3482ZM110.79 33.9754H107.397V23.7543H105.294V22.4128H107.397V18.1582H110.79V22.4128H114.294V23.7543H110.79V33.9754ZM128.56 33.9754H124.585V21.4017H120.661V19.5597H132.484V21.4017H128.56V33.9754ZM143.116 23.4339L141.213 26.5874C141.133 26.3204 141.03 26.0201 140.903 25.6864C140.776 25.3527 140.619 25.0423 140.433 24.7554C140.246 24.4617 140.022 24.2181 139.762 24.0246C139.502 23.8244 139.201 23.7242 138.861 23.7242C138.547 23.7242 138.274 23.8043 138.04 23.9645C137.813 24.1247 137.62 24.3349 137.459 24.5952C137.299 24.8488 137.166 25.1391 137.059 25.4661C136.959 25.7865 136.879 26.1135 136.819 26.4472C136.765 26.7742 136.729 27.0912 136.709 27.3982C136.689 27.6986 136.679 27.9588 136.679 28.1791V33.9754H133.285V22.4128H134.586L135.958 25.1057C136.145 24.6719 136.358 24.2748 136.598 23.9145C136.839 23.5474 137.116 23.2337 137.429 22.9734C137.743 22.7065 138.097 22.4996 138.491 22.3528C138.891 22.2059 139.341 22.1325 139.842 22.1325C140.102 22.1325 140.393 22.1559 140.713 22.2026C141.033 22.2426 141.347 22.3161 141.654 22.4228C141.961 22.5229 142.245 22.6564 142.505 22.8233C142.765 22.9901 142.969 23.1937 143.116 23.4339ZM148.091 19.6198C148.091 19.8734 148.041 20.1137 147.941 20.3406C147.847 20.5675 147.717 20.7644 147.55 20.9312C147.384 21.0981 147.187 21.2315 146.96 21.3316C146.733 21.4251 146.493 21.4718 146.239 21.4718C145.985 21.4718 145.745 21.4251 145.518 21.3316C145.298 21.2315 145.104 21.0981 144.938 20.9312C144.771 20.7644 144.637 20.5675 144.537 20.3406C144.444 20.1137 144.397 19.8734 144.397 19.6198C144.397 19.3662 144.444 19.1293 144.537 18.909C144.637 18.6821 144.771 18.4852 144.938 18.3184C145.104 18.1515 145.298 18.0214 145.518 17.9279C145.745 17.8278 145.985 17.7778 146.239 17.7778C146.493 17.7778 146.733 17.8278 146.96 17.9279C147.187 18.0214 147.384 18.1515 147.55 18.3184C147.717 18.4852 147.847 18.6821 147.941 18.909C148.041 19.1293 148.091 19.3662 148.091 19.6198ZM147.941 33.9754H144.547V22.4228H147.941V33.9754ZM163.077 28.2091C163.077 29.05 162.95 29.8376 162.697 30.5717C162.443 31.3058 162.076 31.9465 161.596 32.4938C161.115 33.0344 160.528 33.4615 159.834 33.7752C159.14 34.0888 158.352 34.2457 157.471 34.2457C157.024 34.2457 156.597 34.1789 156.19 34.0455C155.789 33.912 155.419 33.7251 155.079 33.4849C154.745 33.2379 154.448 32.9443 154.188 32.6039C153.934 32.2635 153.734 31.8831 153.587 31.4627L152.085 33.9754H150.784V18.1582H154.168V23.7943C154.568 23.2404 155.048 22.8333 155.609 22.573C156.176 22.3127 156.797 22.1826 157.471 22.1826C158.352 22.1826 159.14 22.3394 159.834 22.6531C160.528 22.9668 161.115 23.3939 161.596 23.9345C162.076 24.4751 162.443 25.1124 162.697 25.8466C162.95 26.5807 163.077 27.3682 163.077 28.2091ZM159.643 28.2091C159.643 27.9155 159.627 27.6051 159.593 27.2781C159.567 26.9444 159.517 26.6141 159.443 26.287C159.37 25.96 159.266 25.6463 159.133 25.346C159.006 25.0457 158.843 24.7821 158.642 24.5552C158.442 24.3216 158.202 24.138 157.922 24.0046C157.641 23.8644 157.311 23.7943 156.931 23.7943C156.583 23.7943 156.273 23.8677 156 24.0146C155.733 24.1547 155.496 24.3449 155.289 24.5852C155.089 24.8254 154.918 25.0991 154.778 25.4061C154.638 25.7131 154.525 26.0301 154.438 26.3571C154.351 26.6841 154.288 27.0078 154.248 27.3282C154.208 27.6485 154.188 27.9422 154.188 28.2091C154.188 28.5094 154.201 28.8265 154.228 29.1602C154.261 29.4939 154.314 29.8275 154.388 30.1612C154.461 30.4883 154.561 30.8019 154.688 31.1023C154.822 31.3959 154.988 31.6595 155.189 31.8931C155.396 32.12 155.639 32.3002 155.919 32.4337C156.206 32.5672 156.543 32.6339 156.931 32.6339C157.304 32.6339 157.631 32.5672 157.912 32.4337C158.199 32.2936 158.442 32.11 158.642 31.8831C158.843 31.6495 159.006 31.3826 159.133 31.0822C159.266 30.7752 159.37 30.4582 159.443 30.1312C159.517 29.8042 159.567 29.4772 159.593 29.1501C159.627 28.8164 159.643 28.5028 159.643 28.2091ZM168.043 28.4894C168.456 28.5829 168.87 28.6563 169.284 28.7097C169.698 28.7631 170.115 28.7898 170.535 28.7898C170.976 28.7898 171.383 28.7497 171.757 28.6696C172.137 28.5829 172.464 28.4427 172.738 28.2492C173.018 28.0489 173.238 27.7853 173.398 27.4583C173.559 27.1313 173.639 26.7242 173.639 26.237C173.639 25.8432 173.585 25.4828 173.479 25.1558C173.372 24.8288 173.212 24.5485 172.998 24.3149C172.791 24.0813 172.534 23.9011 172.227 23.7743C171.92 23.6408 171.563 23.5741 171.156 23.5741C170.776 23.5741 170.432 23.6442 170.125 23.7843C169.825 23.9245 169.558 24.1147 169.324 24.3549C169.097 24.5885 168.9 24.8622 168.733 25.1758C168.573 25.4895 168.44 25.8165 168.333 26.1569C168.226 26.4973 168.149 26.841 168.103 27.188C168.056 27.5351 168.033 27.8621 168.033 28.1691C168.033 28.2225 168.033 28.2759 168.033 28.3293C168.033 28.3826 168.036 28.436 168.043 28.4894ZM176.382 26.2069C176.382 26.6808 176.305 27.1046 176.151 27.4783C175.998 27.8454 175.788 28.1691 175.521 28.4494C175.26 28.7297 174.957 28.9666 174.61 29.1602C174.263 29.3537 173.892 29.5139 173.499 29.6407C173.105 29.7608 172.698 29.8476 172.277 29.901C171.863 29.9544 171.46 29.981 171.066 29.981C170.565 29.981 170.071 29.9477 169.584 29.8809C169.097 29.8075 168.617 29.6941 168.143 29.5406C168.216 29.981 168.333 30.4015 168.493 30.8019C168.653 31.1957 168.867 31.5427 169.134 31.8431C169.401 32.1367 169.728 32.3703 170.115 32.5438C170.509 32.7174 170.972 32.8041 171.506 32.8041C171.86 32.8041 172.197 32.7507 172.517 32.6439C172.838 32.5372 173.131 32.387 173.398 32.1935C173.665 31.9999 173.899 31.7697 174.099 31.5027C174.306 31.2357 174.473 30.9388 174.6 30.6117L176.061 31.1523C175.841 31.6796 175.537 32.1367 175.15 32.5238C174.77 32.9042 174.336 33.2212 173.849 33.4748C173.368 33.7218 172.855 33.9053 172.307 34.0254C171.767 34.1456 171.229 34.2056 170.696 34.2056C169.815 34.2056 169 34.0588 168.253 33.7652C167.505 33.4648 166.861 33.0477 166.321 32.5138C165.78 31.9799 165.356 31.3425 165.049 30.6017C164.742 29.8609 164.589 29.05 164.589 28.1691C164.589 27.2881 164.742 26.4772 165.049 25.7364C165.356 24.9956 165.78 24.3583 166.321 23.8244C166.861 23.2904 167.505 22.8767 168.253 22.583C169 22.2827 169.815 22.1325 170.696 22.1325C171.123 22.1325 171.56 22.1626 172.007 22.2226C172.454 22.2827 172.888 22.3795 173.308 22.5129C173.729 22.6397 174.126 22.8066 174.5 23.0135C174.873 23.2204 175.197 23.4773 175.471 23.7843C175.751 24.0846 175.971 24.435 176.131 24.8355C176.298 25.2359 176.382 25.6931 176.382 26.2069Z" fill="#02055A"/>
</svg>
